<svg xmlns="http://www.w3.org/2000/svg" height="512pt" version="1.1" viewBox="0 0 512 512" width="512pt">
<g id="surface1">
<path d="M 512 256 C 512 397.386719 397.386719 512 256 512 C 114.613281 512 0 397.386719 0 256 C 0 114.613281 114.613281 0 256 0 C 397.386719 0 512 114.613281 512 256 Z M 512 256 " style=" stroke:none;fill-rule:nonzero;fill:rgb(32.54902%,95.686275%,85.098039%);fill-opacity:1;" />
<path d="M 512 256 C 512 282.050781 508.109375 307.191406 500.871094 330.871094 C 495.839844 347.339844 489.199219 363.101562 481.121094 377.980469 C 472.871094 393.179688 463.121094 407.441406 452.070312 420.589844 C 451.488281 421.28125 450.910156 421.96875 450.320312 422.648438 C 403.378906 477.351562 333.730469 512 256 512 C 178.269531 512 108.621094 477.351562 61.691406 422.648438 C 61.101562 421.960938 60.511719 421.269531 59.941406 420.578125 C 48.878906 407.441406 39.128906 393.179688 30.890625 377.980469 C 27.601562 371.949219 24.558594 365.769531 21.769531 359.449219 C 7.769531 327.820312 0 292.820312 0 256 C 0 209.78125 12.25 166.429688 33.679688 129 C 77.800781 206.070312 160.839844 258 256 258 C 351.160156 258 434.210938 206.070312 478.320312 129 C 499.75 166.429688 512 209.78125 512 256 Z M 512 256 " style=" stroke:none;fill-rule:nonzero;fill:rgb(6.27451%,88.627451%,76.862745%);fill-opacity:1;" />
<path d="M 481.261719 377.699219 C 474.101562 390.921875 465.828125 403.441406 456.539062 415.128906 C 442.378906 432.949219 425.890625 448.839844 407.539062 462.339844 C 403.550781 465.28125 399.460938 468.109375 395.289062 470.820312 C 389.140625 474.808594 382.820312 478.550781 376.320312 482.011719 C 375.75 482.320312 375.179688 482.621094 374.601562 482.921875 C 366.171875 487.339844 357.460938 491.300781 348.511719 494.769531 C 343.558594 496.691406 338.539062 498.460938 333.449219 500.070312 C 331.558594 500.671875 329.671875 501.25 327.761719 501.800781 C 322.988281 503.199219 318.171875 504.449219 313.289062 505.558594 C 294.871094 509.78125 275.699219 512 256 512 C 236.300781 512 217.128906 509.78125 198.710938 505.558594 C 193.828125 504.449219 189.011719 503.199219 184.238281 501.800781 C 182.328125 501.25 180.441406 500.671875 178.550781 500.070312 C 173.460938 498.460938 168.441406 496.691406 163.488281 494.769531 C 154.539062 491.300781 145.828125 487.339844 137.398438 482.921875 C 136.820312 482.621094 136.25 482.320312 135.679688 482.011719 C 129.179688 478.550781 122.859375 474.808594 116.710938 470.820312 C 112.539062 468.109375 108.449219 465.28125 104.460938 462.339844 C 86.109375 448.839844 69.621094 432.949219 55.460938 415.128906 C 46.171875 403.441406 37.898438 390.921875 30.738281 377.699219 Z M 481.261719 377.699219 " style=" stroke:none;fill-rule:nonzero;fill:rgb(19.607843%,23.137255%,35.294118%);fill-opacity:1;" />
<path d="M 205.398438 315.921875 C 205.058594 324.589844 205.660156 333.339844 207.191406 342.011719 C 207.589844 344.261719 208.050781 346.5 208.578125 348.75 L 211.308594 360.398438 L 215.371094 377.699219 L 218.511719 391.101562 L 227.75 430.519531 C 228.078125 431.960938 228.371094 433.410156 228.589844 434.851562 C 230.398438 446.28125 228.800781 457.550781 224.511719 467.539062 C 217.390625 484.101562 202.878906 497.179688 184.238281 501.800781 C 182.328125 501.25 180.441406 500.671875 178.550781 500.070312 C 173.460938 498.460938 168.441406 496.691406 163.488281 494.769531 C 154.539062 491.300781 145.828125 487.339844 137.398438 482.921875 L 136.839844 483.019531 C 136.449219 482.699219 136.058594 482.359375 135.679688 482.011719 C 129.179688 478.550781 122.859375 474.808594 116.710938 470.820312 C 114.328125 466.089844 112.550781 460.960938 111.488281 455.53125 C 111.421875 455.171875 111.351562 454.800781 111.289062 454.441406 L 103.691406 411.378906 L 98.210938 380.378906 L 97.738281 377.699219 L 90.410156 336.21875 L 84.941406 305.21875 L 79.328125 273.488281 C 78.601562 269.339844 78.011719 265.171875 77.570312 260.988281 C 76.421875 250.371094 76.210938 239.71875 76.898438 229.140625 C 77.941406 213.070312 81.078125 197.210938 86.21875 181.96875 C 90.269531 169.929688 95.570312 158.28125 102.070312 147.199219 C 103.839844 144.191406 105.699219 141.230469 107.648438 138.308594 C 109.398438 135.699219 111.289062 133.21875 113.359375 130.890625 C 117.480469 126.210938 122.191406 122.140625 127.359375 118.769531 C 135.109375 113.699219 143.878906 110.191406 153.179688 108.539062 C 171.988281 105.21875 190.371094 109.839844 204.871094 120 C 208.058594 122.230469 211.070312 124.730469 213.839844 127.460938 C 221.800781 135.300781 227.910156 145.128906 231.339844 156.339844 C 232.171875 159.03125 232.839844 161.800781 233.339844 164.640625 L 239.160156 197.609375 C 239.328125 198.53125 239.46875 199.480469 239.589844 200.410156 C 241.089844 211.46875 239.871094 222.628906 236.160156 232.988281 C 234.089844 238.730469 231.28125 244.210938 227.71875 249.289062 C 220.429688 259.710938 214.871094 271.058594 211.109375 282.941406 C 207.71875 293.609375 205.789062 304.710938 205.398438 315.921875 Z M 205.398438 315.921875 " style=" stroke:none;fill-rule:nonzero;fill:rgb(100%,91.372549%,33.333333%);fill-opacity:1;" />
<path d="M 205.398438 315.921875 C 205.058594 324.589844 205.660156 333.339844 207.191406 342.011719 C 207.589844 344.261719 208.050781 346.5 208.578125 348.75 L 211.308594 360.398438 L 215.371094 377.699219 L 218.511719 391.101562 L 227.75 430.519531 C 228.078125 431.960938 228.371094 433.410156 228.589844 434.851562 C 230.398438 446.28125 228.800781 457.550781 224.511719 467.539062 C 217.390625 484.101562 202.878906 497.179688 184.238281 501.800781 C 182.328125 501.25 180.441406 500.671875 178.550781 500.070312 L 177.578125 494.558594 L 174.371094 476.390625 L 168.898438 445.390625 L 161.101562 401.238281 L 156.941406 377.699219 L 155.621094 370.238281 L 147.828125 326.078125 L 142.351562 295.078125 L 134.558594 250.929688 L 132.230469 237.738281 L 129.078125 219.929688 L 129.078125 219.921875 L 128.96875 219.28125 L 121.289062 175.78125 L 115.808594 144.769531 L 115.320312 141.988281 L 113.359375 130.890625 C 117.480469 126.210938 122.191406 122.140625 127.359375 118.769531 C 135.109375 113.699219 143.878906 110.191406 153.179688 108.539062 C 171.988281 105.21875 190.371094 109.839844 204.871094 120 C 208.058594 122.230469 211.070312 124.730469 213.839844 127.460938 C 221.800781 135.300781 227.910156 145.128906 231.339844 156.339844 C 232.171875 159.03125 232.839844 161.800781 233.339844 164.640625 L 239.160156 197.609375 C 239.328125 198.53125 239.46875 199.480469 239.589844 200.410156 C 241.089844 211.46875 239.871094 222.628906 236.160156 232.988281 C 234.089844 238.730469 231.28125 244.210938 227.71875 249.289062 C 220.429688 259.710938 214.871094 271.058594 211.109375 282.941406 C 207.71875 293.609375 205.789062 304.710938 205.398438 315.921875 Z M 205.398438 315.921875 " style=" stroke:none;fill-rule:nonzero;fill:rgb(100%,81.960784%,7.058824%);fill-opacity:1;" />
<path d="M 231.339844 156.339844 L 86.214844 181.96875 C 90.265625 169.925781 95.570312 158.277344 102.070312 147.203125 L 213.839844 127.464844 C 221.800781 135.300781 227.910156 145.128906 231.339844 156.339844 Z M 231.339844 156.339844 " style=" stroke:none;fill-rule:nonzero;fill:rgb(100%,100%,100%);fill-opacity:1;" />
<path d="M 239.589844 200.414062 C 241.085938 211.464844 239.867188 222.632812 236.15625 232.988281 L 77.570312 260.996094 C 76.425781 250.371094 76.207031 239.71875 76.90625 229.144531 Z M 239.589844 200.414062 " style=" stroke:none;fill-rule:nonzero;fill:rgb(100%,100%,100%);fill-opacity:1;" />
<path d="M 211.109375 282.941406 C 207.714844 293.613281 205.789062 304.714844 205.398438 315.917969 L 90.414062 336.222656 L 84.9375 305.222656 Z M 211.109375 282.941406 " style=" stroke:none;fill-rule:nonzero;fill:rgb(100%,100%,100%);fill-opacity:1;" />
<path d="M 218.503906 391.101562 L 103.6875 411.378906 L 98.210938 380.378906 L 211.304688 360.402344 Z M 218.503906 391.101562 " style=" stroke:none;fill-rule:nonzero;fill:rgb(100%,100%,100%);fill-opacity:1;" />
<path d="M 224.511719 467.539062 L 214.210938 469.359375 L 174.371094 476.390625 L 137.398438 482.921875 L 136.839844 483.019531 C 136.449219 482.699219 136.058594 482.359375 135.679688 482.011719 C 129.179688 478.550781 122.859375 474.808594 116.710938 470.820312 C 114.328125 466.089844 112.550781 460.960938 111.488281 455.53125 L 119.789062 454.058594 L 168.898438 445.390625 L 220.300781 436.308594 L 228.589844 434.851562 C 230.398438 446.28125 228.800781 457.550781 224.511719 467.539062 Z M 224.511719 467.539062 " style=" stroke:none;fill-rule:nonzero;fill:rgb(100%,100%,100%);fill-opacity:1;" />
<path d="M 219.128906 285.480469 C 222.679688 274.289062 227.878906 263.738281 234.621094 254.121094 C 238.558594 248.480469 241.75 242.328125 244.078125 235.828125 C 248.261719 224.171875 249.589844 211.539062 247.941406 199.351562 C 247.808594 198.289062 247.640625 197.210938 247.449219 196.140625 L 241.628906 163.171875 C 241.078125 160.039062 240.320312 156.910156 239.390625 153.878906 C 235.648438 141.640625 228.859375 130.441406 219.75 121.46875 C 216.648438 118.421875 213.269531 115.601562 209.699219 113.101562 C 192.730469 101.210938 172.128906 96.648438 151.71875 100.25 C 141.308594 102.089844 131.570312 105.949219 122.761719 111.71875 C 113.929688 117.488281 106.488281 124.859375 100.640625 133.640625 C 98.589844 136.71875 96.628906 139.851562 94.808594 142.941406 C 88.050781 154.460938 82.46875 166.691406 78.238281 179.28125 C 72.859375 195.238281 69.589844 211.828125 68.511719 228.589844 C 67.78125 239.648438 68.011719 250.859375 69.199219 261.878906 C 69.660156 266.21875 70.28125 270.621094 71.050781 274.960938 L 89.191406 377.699219 L 103 455.898438 C 103.078125 456.351562 103.160156 456.789062 103.230469 457.140625 C 103.570312 458.890625 103.980469 460.628906 104.460938 462.339844 C 108.449219 465.28125 112.539062 468.109375 116.710938 470.820312 C 122.859375 474.808594 129.179688 478.550781 135.679688 482.011719 C 134.628906 481.078125 133.621094 480.089844 132.648438 479.070312 C 126.128906 472.148438 121.691406 463.539062 119.789062 454.058594 C 119.769531 453.980469 119.761719 453.898438 119.738281 453.820312 C 119.679688 453.539062 119.628906 453.261719 119.578125 452.96875 L 111.980469 409.921875 L 106.5 378.921875 L 106.28125 377.699219 L 98.699219 334.761719 L 93.21875 303.761719 L 87.621094 272.03125 C 87.191406 269.570312 86.808594 267.078125 86.480469 264.589844 C 86.28125 263.089844 86.101562 261.589844 85.941406 260.089844 C 85.921875 259.898438 85.898438 259.710938 85.878906 259.519531 C 85.558594 256.5 85.320312 253.460938 85.171875 250.410156 C 84.800781 243.5 84.851562 236.570312 85.300781 229.691406 C 85.339844 229 85.390625 228.320312 85.449219 227.628906 C 86.558594 213.019531 89.5 198.578125 94.191406 184.648438 C 94.679688 183.191406 95.191406 181.738281 95.71875 180.289062 C 99.371094 170.328125 103.929688 160.648438 109.328125 151.46875 C 110.539062 149.398438 111.828125 147.308594 113.171875 145.238281 C 113.648438 144.480469 114.148438 143.730469 114.648438 142.980469 C 114.871094 142.648438 115.101562 142.320312 115.320312 141.988281 C 119.800781 135.550781 125.390625 130.109375 131.980469 125.808594 C 138.871094 121.289062 146.5 118.269531 154.648438 116.828125 C 167.789062 114.511719 182.160156 115.078125 200.050781 126.890625 C 201.179688 127.640625 202.28125 128.460938 203.339844 129.308594 C 204.941406 130.609375 206.46875 132.011719 207.929688 133.460938 C 214.808594 140.230469 220 148.628906 222.96875 157.820312 C 223.078125 158.148438 223.191406 158.488281 223.289062 158.820312 C 224.03125 161.199219 224.621094 163.648438 225.050781 166.101562 L 230.871094 199.070312 C 231.011719 199.871094 231.140625 200.679688 231.25 201.539062 C 231.269531 201.648438 231.28125 201.769531 231.289062 201.878906 C 232.460938 210.828125 231.570312 220.03125 228.761719 228.609375 C 228.601562 229.121094 228.421875 229.628906 228.238281 230.140625 C 227.679688 231.691406 227.058594 233.21875 226.371094 234.71875 C 225.5 236.660156 224.519531 238.550781 223.441406 240.378906 C 222.621094 241.78125 221.75 243.140625 220.820312 244.46875 C 213.109375 255.488281 207.140625 267.578125 203.089844 280.390625 C 202.648438 281.78125 202.230469 283.179688 201.828125 284.578125 C 198.980469 294.699219 197.351562 305.121094 196.988281 315.589844 C 196.96875 316.199219 196.949219 316.800781 196.941406 317.410156 C 196.71875 326.078125 197.378906 334.839844 198.898438 343.46875 C 199.308594 345.789062 199.808594 348.210938 200.378906 350.671875 L 203.011719 361.871094 L 206.71875 377.699219 L 210.199219 392.570312 L 219.550781 432.421875 C 219.859375 433.769531 220.101562 434.980469 220.28125 436.171875 C 220.289062 436.21875 220.289062 436.261719 220.300781 436.308594 C 221.78125 445.78125 220.550781 455.421875 216.769531 464.21875 C 216.011719 465.988281 215.160156 467.710938 214.210938 469.359375 C 206.738281 482.511719 193.828125 491.699219 178.730469 494.371094 C 178.351562 494.441406 177.960938 494.5 177.578125 494.558594 C 172.851562 495.289062 168.121094 495.351562 163.488281 494.769531 C 168.441406 496.691406 173.460938 498.460938 178.550781 500.070312 C 180.441406 500.671875 182.328125 501.25 184.238281 501.800781 C 189.011719 503.199219 193.828125 504.449219 198.710938 505.558594 C 213.578125 498.601562 225.570312 486.378906 232.238281 470.859375 C 237.300781 459.101562 238.910156 446.191406 236.910156 433.578125 C 236.671875 432.011719 236.359375 430.390625 235.941406 428.601562 L 224.011719 377.699219 L 216.769531 346.839844 C 216.269531 344.691406 215.839844 342.570312 215.480469 340.539062 C 214.058594 332.488281 213.5 324.320312 213.808594 316.210938 C 214.179688 305.789062 215.96875 295.449219 219.128906 285.480469 Z M 219.128906 285.480469 " style=" stroke:none;fill-rule:nonzero;fill:rgb(5.882353%,60.784314%,90.980392%);fill-opacity:1;" />
<path d="M 86.160156 264.609375 C 82.769531 264.609375 79.765625 262.175781 79.152344 258.71875 C 78.46875 254.84375 81.054688 251.148438 84.929688 250.464844 C 99.902344 247.820312 116.566406 236.164062 128.414062 220.046875 C 142.339844 201.101562 147.855469 178.464844 143.945312 156.3125 C 143.261719 152.4375 145.847656 148.738281 149.722656 148.054688 C 153.601562 147.375 157.296875 149.960938 157.980469 153.835938 C 162.574219 179.859375 156.152344 206.371094 139.894531 228.488281 C 125.960938 247.441406 105.851562 261.242188 87.410156 264.496094 C 86.988281 264.570312 86.574219 264.609375 86.160156 264.609375 Z M 86.160156 264.609375 " style=" stroke:none;fill-rule:nonzero;fill:rgb(19.607843%,23.137255%,35.294118%);fill-opacity:1;" />
<path d="M 223.371094 240.378906 C 222.941406 240.378906 222.511719 240.339844 222.074219 240.261719 C 179.269531 232.390625 152.253906 203.359375 143.945312 156.3125 C 143.261719 152.4375 145.847656 148.738281 149.722656 148.054688 C 153.601562 147.375 157.296875 149.960938 157.980469 153.835938 C 165.265625 195.085938 187.695312 219.449219 224.652344 226.242188 C 228.523438 226.957031 231.082031 230.671875 230.371094 234.539062 C 229.738281 237.976562 226.742188 240.378906 223.371094 240.378906 Z M 223.371094 240.378906 " style=" stroke:none;fill-rule:nonzero;fill:rgb(19.607843%,23.137255%,35.294118%);fill-opacity:1;" />
<path d="M 434.429688 260.988281 C 433.988281 265.171875 433.398438 269.339844 432.671875 273.488281 L 427.058594 305.21875 L 421.589844 336.21875 L 414.261719 377.699219 L 413.789062 380.378906 L 408.308594 411.378906 L 400.710938 454.441406 C 400.648438 454.800781 400.578125 455.171875 400.511719 455.53125 C 399.449219 460.960938 397.671875 466.089844 395.289062 470.820312 C 389.140625 474.808594 382.820312 478.550781 376.320312 482.011719 C 375.941406 482.359375 375.550781 482.699219 375.160156 483.019531 L 374.601562 482.921875 C 366.171875 487.339844 357.460938 491.300781 348.511719 494.769531 C 343.558594 496.691406 338.539062 498.460938 333.449219 500.070312 C 331.558594 500.671875 329.671875 501.25 327.761719 501.800781 C 309.121094 497.179688 294.609375 484.101562 287.488281 467.539062 C 283.199219 457.550781 281.601562 446.28125 283.410156 434.851562 C 283.628906 433.410156 283.921875 431.960938 284.25 430.519531 L 293.488281 391.101562 L 296.628906 377.699219 L 300.691406 360.398438 L 303.421875 348.75 C 303.949219 346.5 304.410156 344.261719 304.808594 342.011719 C 306.339844 333.339844 306.941406 324.589844 306.601562 315.921875 C 306.210938 304.710938 304.28125 293.609375 300.890625 282.941406 C 297.128906 271.058594 291.570312 259.710938 284.28125 249.289062 C 280.71875 244.210938 277.910156 238.730469 275.839844 232.988281 C 272.128906 222.628906 270.910156 211.46875 272.410156 200.410156 C 272.53125 199.480469 272.671875 198.53125 272.839844 197.609375 L 278.660156 164.640625 C 279.160156 161.800781 279.828125 159.03125 280.660156 156.339844 C 284.089844 145.128906 290.199219 135.300781 298.160156 127.460938 C 300.929688 124.730469 303.941406 122.230469 307.128906 120 C 321.628906 109.839844 340.011719 105.21875 358.820312 108.539062 C 368.121094 110.191406 376.890625 113.699219 384.640625 118.769531 C 389.808594 122.140625 394.519531 126.210938 398.640625 130.890625 C 400.710938 133.21875 402.601562 135.699219 404.351562 138.308594 C 406.300781 141.230469 408.160156 144.191406 409.929688 147.199219 C 416.429688 158.28125 421.730469 169.929688 425.78125 181.96875 C 430.921875 197.210938 434.058594 213.070312 435.101562 229.140625 C 435.789062 239.71875 435.578125 250.371094 434.429688 260.988281 Z M 434.429688 260.988281 " style=" stroke:none;fill-rule:nonzero;fill:rgb(100%,91.372549%,33.333333%);fill-opacity:1;" />
<path d="M 398.640625 130.890625 L 396.679688 141.988281 L 396.191406 144.769531 L 390.710938 175.78125 L 383.03125 219.28125 L 382.921875 219.921875 L 382.921875 219.929688 L 379.769531 237.738281 L 377.441406 250.929688 L 369.648438 295.078125 L 364.171875 326.078125 L 356.378906 370.238281 L 355.058594 377.699219 L 350.898438 401.238281 L 343.101562 445.390625 L 337.628906 476.390625 L 334.421875 494.558594 L 333.449219 500.070312 C 331.558594 500.671875 329.671875 501.25 327.761719 501.800781 C 309.121094 497.179688 294.609375 484.101562 287.488281 467.539062 C 283.199219 457.550781 281.601562 446.28125 283.410156 434.851562 C 283.628906 433.410156 283.921875 431.960938 284.25 430.519531 L 293.488281 391.101562 L 296.628906 377.699219 L 300.691406 360.398438 L 303.421875 348.75 C 303.949219 346.5 304.410156 344.261719 304.808594 342.011719 C 306.339844 333.339844 306.941406 324.589844 306.601562 315.921875 C 306.210938 304.710938 304.28125 293.609375 300.890625 282.941406 C 297.128906 271.058594 291.570312 259.710938 284.28125 249.289062 C 280.71875 244.210938 277.910156 238.730469 275.839844 232.988281 C 272.128906 222.628906 270.910156 211.46875 272.410156 200.410156 C 272.53125 199.480469 272.671875 198.53125 272.839844 197.609375 L 278.660156 164.640625 C 279.160156 161.800781 279.828125 159.03125 280.660156 156.339844 C 284.089844 145.128906 290.199219 135.300781 298.160156 127.460938 C 300.929688 124.730469 303.941406 122.230469 307.128906 120 C 321.628906 109.839844 340.011719 105.21875 358.820312 108.539062 C 368.121094 110.191406 376.890625 113.699219 384.640625 118.769531 C 389.808594 122.140625 394.519531 126.210938 398.640625 130.890625 Z M 398.640625 130.890625 " style=" stroke:none;fill-rule:nonzero;fill:rgb(100%,81.960784%,7.058824%);fill-opacity:1;" />
<path d="M 280.660156 156.339844 L 425.785156 181.972656 C 421.734375 169.925781 416.429688 158.277344 409.929688 147.203125 L 298.160156 127.464844 C 290.199219 135.300781 284.089844 145.128906 280.660156 156.339844 Z M 280.660156 156.339844 " style=" stroke:none;fill-rule:nonzero;fill:rgb(100%,100%,100%);fill-opacity:1;" />
<path d="M 272.410156 200.414062 C 270.914062 211.464844 272.132812 222.632812 275.84375 232.988281 L 434.429688 260.992188 C 435.574219 250.371094 435.792969 239.71875 435.09375 229.144531 Z M 272.410156 200.414062 " style=" stroke:none;fill-rule:nonzero;fill:rgb(100%,100%,100%);fill-opacity:1;" />
<path d="M 300.890625 282.941406 C 304.285156 293.613281 306.210938 304.714844 306.601562 315.917969 L 421.585938 336.222656 L 427.0625 305.222656 Z M 300.890625 282.941406 " style=" stroke:none;fill-rule:nonzero;fill:rgb(100%,100%,100%);fill-opacity:1;" />
<path d="M 293.496094 391.101562 L 408.3125 411.378906 L 413.789062 380.378906 L 300.695312 360.402344 Z M 293.496094 391.101562 " style=" stroke:none;fill-rule:nonzero;fill:rgb(100%,100%,100%);fill-opacity:1;" />
<path d="M 400.511719 455.53125 C 399.449219 460.960938 397.671875 466.089844 395.289062 470.820312 C 389.140625 474.808594 382.820312 478.550781 376.320312 482.011719 C 375.941406 482.359375 375.550781 482.699219 375.160156 483.019531 L 374.601562 482.921875 L 337.628906 476.390625 L 297.789062 469.359375 L 287.488281 467.539062 C 283.199219 457.550781 281.601562 446.28125 283.410156 434.851562 L 291.699219 436.308594 L 343.101562 445.390625 L 392.210938 454.058594 Z M 400.511719 455.53125 " style=" stroke:none;fill-rule:nonzero;fill:rgb(100%,100%,100%);fill-opacity:1;" />
<path d="M 443.488281 228.589844 C 442.410156 211.828125 439.140625 195.238281 433.761719 179.28125 C 429.53125 166.691406 423.949219 154.460938 417.191406 142.941406 C 415.371094 139.851562 413.410156 136.71875 411.359375 133.640625 C 405.511719 124.859375 398.070312 117.488281 389.238281 111.71875 C 380.429688 105.949219 370.691406 102.089844 360.28125 100.25 C 339.871094 96.648438 319.269531 101.210938 302.300781 113.101562 C 298.730469 115.601562 295.351562 118.421875 292.25 121.46875 C 283.140625 130.441406 276.351562 141.640625 272.609375 153.878906 C 271.679688 156.910156 270.921875 160.039062 270.371094 163.171875 L 264.550781 196.140625 C 264.359375 197.210938 264.191406 198.289062 264.058594 199.351562 C 262.410156 211.539062 263.738281 224.171875 267.921875 235.828125 C 270.25 242.328125 273.441406 248.480469 277.378906 254.121094 C 284.121094 263.738281 289.320312 274.289062 292.871094 285.480469 C 296.03125 295.449219 297.820312 305.789062 298.191406 316.210938 C 298.5 324.320312 297.941406 332.488281 296.519531 340.539062 C 296.160156 342.570312 295.730469 344.691406 295.230469 346.839844 L 287.988281 377.699219 L 276.058594 428.601562 C 275.640625 430.390625 275.328125 432.011719 275.089844 433.578125 C 273.089844 446.191406 274.699219 459.101562 279.761719 470.859375 C 286.429688 486.378906 298.421875 498.601562 313.289062 505.558594 C 318.171875 504.449219 322.988281 503.199219 327.761719 501.800781 C 329.671875 501.25 331.558594 500.671875 333.449219 500.070312 C 338.539062 498.460938 343.558594 496.691406 348.511719 494.769531 C 343.878906 495.351562 339.148438 495.289062 334.421875 494.558594 C 334.039062 494.5 333.648438 494.441406 333.269531 494.371094 C 318.171875 491.699219 305.261719 482.511719 297.789062 469.359375 C 296.839844 467.710938 295.988281 465.988281 295.230469 464.21875 C 291.449219 455.421875 290.21875 445.78125 291.699219 436.308594 C 291.710938 436.261719 291.710938 436.21875 291.71875 436.171875 C 291.898438 434.980469 292.140625 433.769531 292.449219 432.421875 L 301.800781 392.570312 L 305.28125 377.699219 L 308.988281 361.871094 L 311.621094 350.671875 C 312.191406 348.210938 312.691406 345.789062 313.101562 343.46875 C 314.621094 334.839844 315.28125 326.078125 315.058594 317.410156 C 315.050781 316.800781 315.03125 316.199219 315.011719 315.589844 C 314.648438 305.121094 313.019531 294.699219 310.171875 284.578125 C 309.769531 283.179688 309.351562 281.78125 308.910156 280.390625 C 304.859375 267.578125 298.890625 255.488281 291.179688 244.46875 C 290.25 243.140625 289.378906 241.78125 288.558594 240.378906 C 287.480469 238.550781 286.5 236.660156 285.628906 234.71875 C 284.941406 233.21875 284.320312 231.691406 283.761719 230.140625 C 283.578125 229.628906 283.398438 229.121094 283.238281 228.609375 C 280.429688 220.03125 279.539062 210.828125 280.710938 201.878906 C 280.71875 201.769531 280.730469 201.648438 280.75 201.539062 C 280.859375 200.679688 280.988281 199.871094 281.128906 199.070312 L 286.949219 166.101562 C 287.378906 163.648438 287.96875 161.199219 288.710938 158.820312 C 288.808594 158.488281 288.921875 158.148438 289.03125 157.820312 C 292 148.628906 297.191406 140.230469 304.070312 133.460938 C 305.53125 132.011719 307.058594 130.609375 308.660156 129.308594 C 309.71875 128.460938 310.820312 127.640625 311.949219 126.890625 C 329.839844 115.078125 344.210938 114.511719 357.351562 116.828125 C 365.5 118.269531 373.128906 121.289062 380.019531 125.808594 C 386.609375 130.109375 392.199219 135.550781 396.679688 141.988281 C 396.898438 142.320312 397.128906 142.648438 397.351562 142.980469 C 397.851562 143.730469 398.351562 144.480469 398.828125 145.238281 C 400.171875 147.308594 401.460938 149.398438 402.671875 151.46875 C 408.070312 160.648438 412.628906 170.328125 416.28125 180.289062 C 416.808594 181.738281 417.320312 183.191406 417.808594 184.648438 C 422.5 198.578125 425.441406 213.019531 426.550781 227.628906 C 426.609375 228.320312 426.660156 229 426.699219 229.691406 C 427.148438 236.570312 427.199219 243.5 426.828125 250.410156 C 426.679688 253.460938 426.441406 256.5 426.121094 259.519531 C 426.101562 259.710938 426.078125 259.898438 426.058594 260.089844 C 425.898438 261.589844 425.71875 263.089844 425.519531 264.589844 C 425.191406 267.078125 424.808594 269.570312 424.378906 272.03125 L 418.78125 303.761719 L 413.300781 334.761719 L 405.71875 377.699219 L 405.5 378.921875 L 400.019531 409.921875 L 392.421875 452.96875 C 392.371094 453.261719 392.320312 453.539062 392.261719 453.820312 C 392.238281 453.898438 392.230469 453.980469 392.210938 454.058594 C 390.308594 463.539062 385.871094 472.148438 379.351562 479.070312 C 378.378906 480.089844 377.371094 481.078125 376.320312 482.011719 C 382.820312 478.550781 389.140625 474.808594 395.289062 470.820312 C 399.460938 468.109375 403.550781 465.28125 407.539062 462.339844 C 408.019531 460.628906 408.429688 458.890625 408.769531 457.140625 C 408.839844 456.789062 408.921875 456.351562 409 455.898438 L 422.808594 377.699219 L 440.949219 274.960938 C 441.71875 270.621094 442.339844 266.21875 442.800781 261.878906 C 443.988281 250.859375 444.21875 239.648438 443.488281 228.589844 Z M 443.488281 228.589844 " style=" stroke:none;fill-rule:nonzero;fill:rgb(5.882353%,60.784314%,90.980392%);fill-opacity:1;" />
<path d="M 425.839844 264.609375 C 425.425781 264.609375 425.011719 264.570312 424.589844 264.496094 C 406.152344 261.242188 386.039062 247.441406 372.105469 228.488281 C 355.847656 206.371094 349.425781 179.859375 354.023438 153.835938 C 354.707031 149.957031 358.410156 147.375 362.277344 148.054688 C 366.152344 148.742188 368.742188 152.4375 368.054688 156.3125 C 364.144531 178.464844 369.660156 201.101562 383.585938 220.046875 C 395.4375 236.164062 412.097656 247.820312 427.070312 250.464844 C 430.945312 251.148438 433.53125 254.84375 432.847656 258.71875 C 432.234375 262.175781 429.230469 264.609375 425.839844 264.609375 Z M 425.839844 264.609375 " style=" stroke:none;fill-rule:nonzero;fill:rgb(19.607843%,23.137255%,35.294118%);fill-opacity:1;" />
<path d="M 288.628906 240.378906 C 285.257812 240.378906 282.261719 237.976562 281.628906 234.539062 C 280.917969 230.671875 283.480469 226.957031 287.347656 226.242188 C 324.304688 219.449219 346.738281 195.085938 354.023438 153.835938 C 354.707031 149.957031 358.410156 147.375 362.277344 148.054688 C 366.152344 148.742188 368.742188 152.4375 368.054688 156.3125 C 359.746094 203.359375 332.730469 232.390625 289.925781 240.261719 C 289.492188 240.339844 289.058594 240.378906 288.628906 240.378906 Z M 288.628906 240.378906 " style=" stroke:none;fill-rule:nonzero;fill:rgb(19.607843%,23.137255%,35.294118%);fill-opacity:1;" />
</g>
</svg>